<svg t="1688002673246" class="icon" viewBox="0 0 1024 1024" version="1.1" xmlns="http://www.w3.org/2000/svg" p-id="15956" width="64" height="64"><path d="M930.133333 733.866667h-46.933333c0-204.8-166.4-371.2-371.2-371.2-204.8 0-371.2 166.4-371.2 371.2H93.866667c0-230.4 187.733333-418.133333 418.133333-418.133334s418.133333 187.733333 418.133333 418.133334z" fill="#01f8fe" p-id="15957"></path><path d="M200.533333 738.133333c0-170.666667 140.8-311.466667 311.466667-311.466666s311.466667 140.8 311.466667 311.466666" fill="#01f8fe" p-id="15958"></path><path d="M913.066667 844.8H110.933333c-38.4 0-68.266667-29.866667-68.266666-68.266667 0-38.4 29.866667-68.266667 68.266666-68.266666h806.4c38.4 0 68.266667 29.866667 68.266667 68.266666-4.266667 38.4-34.133333 68.266667-72.533333 68.266667z m-802.133334-85.333333c-8.533333 0-17.066667 8.533333-17.066666 17.066666s8.533333 17.066667 17.066666 17.066667h806.4c8.533333 0 17.066667-8.533333 17.066667-17.066667s-8.533333-17.066667-17.066667-17.066666H110.933333zM512 362.666667c-51.2 0-89.6-42.666667-89.6-89.6s42.666667-89.6 89.6-89.6 89.6 42.666667 89.6 89.6-38.4 89.6-89.6 89.6z m0-132.266667c-21.333333 0-42.666667 17.066667-42.666667 42.666667s17.066667 42.666667 42.666667 42.666666 42.666667-17.066667 42.666667-42.666666-21.333333-42.666667-42.666667-42.666667z" fill="#01f8fe" p-id="15959"></path></svg>
