<svg t="1688001296987" class="icon" viewBox="0 0 1024 1024" version="1.1" xmlns="http://www.w3.org/2000/svg" p-id="5130" width="64" height="64"><path d="M512 611.555556v341.333333H170.666667a341.333333 341.333333 0 0 1 341.333333-341.333333z m327.395556 17.464888a95.573333 95.573333 0 0 1 42.837333 159.857778l-142.734222 142.734222-142.620445-142.677333a95.573333 95.573333 0 1 1 135.168-135.168l7.452445 7.509333 7.566222-7.509333a95.573333 95.573333 0 0 1 92.330667-24.746667zM512 56.888889c141.425778 0 256 114.574222 256 256S653.425778 568.888889 512 568.888889a255.943111 255.943111 0 0 1-256-256C256 171.463111 370.574222 56.888889 512 56.888889z" fill="#02f8fe" p-id="5131"></path></svg>
