<svg t="1688002060565" class="icon" viewBox="0 0 1024 1024" version="1.1" xmlns="http://www.w3.org/2000/svg" p-id="5728" width="64" height="64"><path d="M650.03 165.79c114.66 0 207.61 92.95 207.61 207.61v276.8c0 114.66-92.95 207.61-207.61 207.61h-276.8c-114.66 0-207.61-92.95-207.61-207.61V373.39c0-114.66 92.95-207.61 207.61-207.61h276.8zM380.65 278.05c-23.4 78.35-60.03 146.52-108.88 204.02l17.3 56.98a824.191 824.191 0 0 0 43.76-50.88v266.6h53.93V405.75a549.24 549.24 0 0 0 44.26-103.79l-50.37-23.91z m316.96 25.44H449.33v171.97h97.18v40.19H411.17v51.89h89.03C473.24 614.35 439.15 652 397.44 681.5l30.02 47.83c45.79-38.66 84.46-92.59 114.98-161.79h4.07v186.72h52.91V567.54h3.56c29.51 64.11 67.16 118.04 112.44 161.28l34.6-46.3c-44.77-33.07-79.37-71.23-104.3-114.98h94.12v-51.89H599.41v-40.19h98.19V303.49z m-51.89 50.88v70.21h-144.5v-70.21h144.5z m0 0" p-id="5729" fill="#02f8fe"></path></svg>
