<svg t="1688002139079" class="icon" viewBox="0 0 1024 1024" version="1.1" xmlns="http://www.w3.org/2000/svg" p-id="6155" width="64" height="64"><path d="M486.43 153.27c33.25 0 62.78 3.81 92.33 11.42 62.8 19.03 128.8 55.59 162.05 116.47 29.55 45.67 33.72 111.81 18.94 153.66-3.69 3.81-3.69 7.61 0 11.42 3.69 7.61 11.08 15.22 18.47 22.83 14.77 22.84 36.94 53.26 44.33 76.1 3.67 7.61 3.67 21.54 0 29.15-7.39 7.61-44.33 24.11-44.33 24.11-8.82 3.02-10.63 63.9-10.99 92.47l-0.09 14.06c0 38.06-25.86 60.88-66.5 60.88-11.08 0-40.61-7.61-44.33-7.61-20.98 0-28.72 6.83-29.46 26.96l-0.07 3.49c0 7.61-7.39 71.76-22.17 79.35-10.3 3.54-52.32 0.51-114.47 0.06l-14.69-0.06H332.41c-7.93-0.07-23.28-1.23-23.28-22.34 0-30.56 12.89-65.53 12.89-111.55 0-46.03-35.06-71.37-53.51-98.02-40.63-49.48-88.66-163.24-62.8-288.82 14.78-68.47 51.72-117.92 110.82-152.18 59.06-34.24 125.54-41.85 169.87-41.85h0.03z m118.44 167.92c-5.68-9.83-17.83-13.85-28.26-9.36l-2.33 1.17-85.75 49.5-85.75-49.48c-10.26-5.87-23.32-2.76-29.82 7.11-6.5 9.88-4.21 23.11 5.24 30.21l2.17 1.43 63.36 36.58-63.36 36.58-2.17 1.43c-8.26 6.14-11.26 17.13-7.28 26.62l1.25 2.53 1.46 2.19a22.397 22.397 0 0 0 26.6 7.26l2.53-1.25 85.75-49.5 85.75 49.5c10.27 5.98 23.43 2.88 29.96-7.04 6.54-9.93 4.18-23.23-5.38-30.3l-2.17-1.43-63.36-36.58 63.36-36.58 2.17-1.43c9.12-6.79 11.7-19.32 6.03-29.16z m0 0" p-id="6156" fill="#02f8fe"></path></svg>
