<svg t="1688001147574" class="icon" viewBox="0 0 1024 1024" version="1.1" xmlns="http://www.w3.org/2000/svg" p-id="4804" width="64" height="64"><path d="M690.005333 625.834667c-12.458667 0-23.893333 2.389333-34.474666 6.997333-0.853333-0.682667-1.194667-1.706667-2.048-2.389333L434.005333 412.16c-14.506667-14.506667-35.84-19.968-55.466666-14.506667l-0.512-0.512c-0.512 0.512-1.194667 0.512-1.706667 0.853334-7.509333 2.218667-14.336 5.973333-20.138667 11.093333-134.826667 81.066667-227.328 276.138667-227.328 437.76 0 22.528-3.242667 33.28 0 55.125333h422.570667V689.152l20.992 20.992c3.584 3.584 7.509333 6.485333 11.605333 9.045333 1.877333 19.968 18.261333 35.669333 38.229334 36.693334 20.138667 1.024 37.888-12.8 41.813333-32.426667h0.853333V715.093333c0-13.312 10.752-24.234667 24.234667-24.234666S713.386667 701.781333 713.386667 715.093333v187.050667h64.853333V715.093333c0.341333-23.552-8.874667-46.421333-25.429333-63.146666s-39.253333-26.112-62.805334-26.112z m120.832-399.018667c-3.413333-12.8-44.032-29.696-56.832-26.282667l-7.850666 2.048-38.570667-43.52c-4.096-4.608-24.576-25.429333-40.277333-34.474666-22.186667-12.8-194.389333 23.893333-216.576 57.856-9.386667 14.848-13.482667 32.085333-15.530667 40.277333l-13.482667 67.072-7.850666 2.048c-12.629333 3.242667-39.424 38.229333-36.181334 51.029333 1.536 6.314667 5.632 11.605333 11.264 14.677334 5.632 3.072 12.288 3.925333 18.432 2.218666l51.712-13.653333c12.8 67.072 71.509333 115.541333 139.776 115.541333 78.336 0.170667 141.994667-62.976 142.165334-141.312v-0.170666c0-16.554667-2.901333-32.426667-8.192-47.274667l60.928-16.554667c6.314667-1.536 11.605333-5.461333 14.848-11.093333 3.072-5.632 3.925333-12.288 2.218666-18.432zM703.146667 153.6l4.437333 5.461333c1.706667 1.877333 0.853333 0.853333-4.437333-5.461333z" p-id="4805" fill="#02f8fe"></path></svg>
