<svg t="1688001814938" class="icon" viewBox="0 0 1024 1024" version="1.1" xmlns="http://www.w3.org/2000/svg" p-id="5113" width="64" height="64"><path d="M282.375758 427.070061v112.329697A204.737939 204.737939 0 0 0 179.975758 716.8c0 113.136485 91.663515 204.8 204.8 204.8a204.737939 204.737939 0 0 0 177.400242-102.4h112.298667A307.293091 307.293091 0 0 1 384.775758 1024C215.102061 1024 77.575758 886.473697 77.575758 716.8c0-133.771636 85.519515-247.559758 204.8-289.729939z m204.8 340.929939a153.6 153.6 0 0 1-153.6-153.6v-204.8a153.6 153.6 0 1 1 307.2 0v256h73.417697c33.202424 0 64.170667 16.073697 83.254303 42.821818l4.561454 6.888727 138.643394 231.175758-87.753697 52.627394-138.767515-231.113697H487.175758zM487.175758 0a128.062061 128.062061 0 0 1 128 128A128.062061 128.062061 0 0 1 487.175758 256a128.062061 128.062061 0 0 1-128-128A128.062061 128.062061 0 0 1 487.175758 0z" fill="#02f8fe" p-id="5114"></path></svg>
