<svg t="1688001025997" class="icon" viewBox="0 0 1024 1024" version="1.1" xmlns="http://www.w3.org/2000/svg" p-id="3338"
     width="64" height="64">
    <path d="M559.908571 680.228571h-3.657142l-137.508572-51.931428a29.257143 29.257143 0 0 1-9.508571-48.64l109.714285-102.765714a29.257143 29.257143 0 0 1 29.257143-6.217143l117.394286 40.228571a28.525714 28.525714 0 0 1 18.651429 21.577143 234.788571 234.788571 0 0 1 227.108571 12.8c36.571429-93.257143 57.782857-179.565714 53.394286-212.48-10.971429-82.651429-359.862857-182.857143-484.571429-161.28-135.68 20.845714-445.805714 228.571429-421.302857 427.885714 8.411429 69.851429 318.902857 202.971429 515.657143 247.588572a233.691429 233.691429 0 0 1-14.628572-167.131429z m58.88-295.862857l68.388572-63.268571a29.257143 29.257143 0 0 1 28.891428-6.217143l85.211429 27.428571a29.257143 29.257143 0 0 1 13.531429 46.445715l-56.685715 69.12a29.257143 29.257143 0 0 1-32.182857 9.142857l-96.914286-33.28a29.257143 29.257143 0 0 1-10.24-49.371429z m-213.577142-73.142857l68.022857-58.514286a29.257143 29.257143 0 0 1 28.16-5.851428l83.748571 26.331428a29.257143 29.257143 0 0 1 10.971429 49.371429l-66.194286 61.074286a29.257143 29.257143 0 0 1-29.257143 6.217143l-87.04-29.988572a29.257143 29.257143 0 0 1-8.411428-49.737143z m-109.714286 270.628572l-96.182857-36.571429a29.257143 29.257143 0 0 1-8.777143-49.737143l109.714286-95.085714a29.257143 29.257143 0 0 1 28.891428-6.217143l92.891429 31.817143a29.257143 29.257143 0 0 1 10.605714 49.371428L325.485714 574.902857a29.257143 29.257143 0 0 1-30.354285 5.851429z"
          fill="#02f8fe" p-id="3339"></path>
    <path d="M891.611429 596.114286a182.857143 182.857143 0 1 0 77.531428 148.48 180.297143 180.297143 0 0 0-77.531428-148.48z m7.314285 148.845714c0 95.817143-97.28 129.828571-101.302857 131.291429h-8.777143a180.662857 180.662857 0 0 1-52.297143-30.354286 128.365714 128.365714 0 0 1-49.005714-100.937143V694.857143a13.165714 13.165714 0 0 1 7.68-12.068572l92.525714-42.057142a12.8 12.8 0 0 1 5.485715 0 13.165714 13.165714 0 0 1 5.485714 0l59.977143 27.428571 32.182857 14.628571a13.165714 13.165714 0 0 1 7.68 12.068572z"
          fill="#02f8fe" p-id="3340"></path>
</svg>
