<svg t="1688000826540" class="icon" viewBox="0 0 1024 1024" version="1.1" xmlns="http://www.w3.org/2000/svg" p-id="2229"
     width="64" height="64">
    <path d="M256 128c168.768 98.464 271.904 210.88 309.44 337.28C602.976 591.584 617.152 713.824 608 832h36.768c-11.968-71.488-1.376-147.648 31.776-228.48s91.84-154.016 176-219.52c-35.744 98.688-57.088 184-64 256-6.944 72 3.744 136 32 192H864a32 32 0 0 1 0 64H160a32 32 0 0 1 0-64h32c28.256-56 38.912-120 32-192-6.912-72-28.256-157.312-64-256 84.16 65.504 142.848 138.688 176 219.52 33.152 80.832 43.744 156.992 31.776 228.48H384c38.304-106.144 45.888-220.64 22.72-343.488C383.584 365.632 333.344 245.44 256 128z m480 64c-72.768 80.832-117.952 173.952-135.552 279.296l-4.32-15.168c-14.304-48.128-37.44-94.496-69.664-139.008C563.904 243.008 633.728 201.28 736 192z"
          fill="#02f8fe" p-id="2230"></path>
</svg>
